<svg xmlns="http://www.w3.org/2000/svg" viewBox="0 0 48 48" width="24" height="24"><g><path fill="#4285F4" d="M43.611 20.083H42V20H24v8h11.303C33.978 32.833 29.418 36 24 36c-6.627 0-12-5.373-12-12s5.373-12 12-12c2.69 0 5.175.886 7.19 2.364l6.062-6.062C33.527 5.099 28.97 3 24 3 12.954 3 4 11.954 4 23s8.954 20 20 20c11.045 0 19.824-7.949 19.824-19.824 0-1.324-.138-2.617-.213-3.093z"/><path fill="#34A853" d="M6.306 14.691l6.571 4.819C14.655 16.104 19.001 13 24 13c2.69 0 5.175.886 7.19 2.364l6.062-6.062C33.527 5.099 28.97 3 24 3c-6.627 0-12 5.373-12 12 0 2.09.53 4.062 1.47 5.791z"/><path fill="#FBBC05" d="M24 44c5.318 0 9.799-1.757 13.066-4.771l-6.038-4.947C29.418 36 24 36 24 36c-5.418 0-9.978-3.167-11.303-8.083l-6.571 4.819C8.53 40.938 15.373 44 24 44z"/><path fill="#EA4335" d="M43.611 20.083H42V20H24v8h11.303C34.62 32.833 29.418 36 24 36c-5.418 0-9.978-3.167-11.303-8.083l-6.571 4.819C8.53 40.938 15.373 44 24 44c11.045 0 19.824-7.949 19.824-19.824 0-1.324-.138-2.617-.213-3.093z"/></g></svg>